<?xml version="1.0" standalone="no"?>
<!DOCTYPE svg PUBLIC "-//W3C//DTD SVG 20010904//EN"
 "http://www.w3.org/TR/2001/REC-SVG-20010904/DTD/svg10.dtd">
<svg version="1.0" xmlns="http://www.w3.org/2000/svg"
 width="1139.000000pt" height="1280.000000pt" viewBox="0 0 1139.000000 1280.000000"
 preserveAspectRatio="xMidYMid meet">
<metadata>
Created by potrace 1.15, written by Peter Selinger 2001-2017
</metadata>
<g transform="translate(0.000000,1280.000000) scale(0.100000,-0.100000)"
fill="#000000" stroke="none">
<path d="M7772 12769 c-160 -41 -559 -175 -742 -249 -85 -34 -232 -100 -325
-146 -149 -73 -195 -102 -370 -234 -234 -176 -267 -194 -346 -188 -48 3 -94
23 -310 130 -275 137 -382 177 -633 238 -506 123 -1084 176 -1641 151 -224 -9
-288 -21 -309 -53 -14 -24 33 -71 194 -196 254 -197 445 -377 561 -530 81
-106 269 -508 269 -575 0 -14 -7 -28 -16 -31 -9 -3 -163 -6 -344 -6 -522 0
-702 -28 -1045 -162 -142 -56 -684 -326 -861 -430 -239 -141 -449 -284 -461
-314 -3 -8 -51 -52 -107 -98 -160 -133 -638 -622 -787 -806 -137 -168 -406
-525 -428 -567 -11 -22 -27 -75 -36 -118 -17 -80 -34 -387 -35 -607 l0 -117
122 73 c281 167 533 295 908 461 539 239 802 340 1000 385 304 69 429 86 744
100 127 6 235 14 240 19 14 10 669 -81 786 -109 99 -24 186 -63 201 -92 20
-37 0 -65 -111 -163 -60 -53 -110 -103 -110 -110 0 -7 -11 -20 -24 -29 -72
-46 -245 -485 -249 -626 -1 -72 25 -149 81 -233 58 -89 148 -163 277 -228
l102 -52 139 -9 c77 -5 149 -12 162 -14 29 -6 24 -24 -11 -44 -21 -12 -31 -12
-45 -4 -16 11 -18 9 -14 -15 3 -21 -9 -40 -55 -93 -33 -37 -66 -86 -73 -108
-8 -23 -21 -47 -30 -53 -9 -7 -19 -20 -23 -29 -3 -10 -15 -18 -25 -18 -15 0
-18 -6 -15 -23 5 -25 -49 -107 -70 -107 -16 0 -141 -153 -188 -230 -18 -30
-47 -75 -65 -100 -44 -63 -64 -105 -64 -135 0 -18 -7 -28 -24 -35 -31 -11 -46
-34 -158 -235 -170 -304 -194 -354 -181 -374 10 -15 8 -22 -8 -37 -19 -17 -20
-17 -13 2 7 17 6 18 -10 5 -10 -9 -16 -25 -14 -40 2 -19 -1 -25 -13 -23 -21 3
-74 -121 -53 -126 21 -5 17 -18 -12 -36 -19 -13 -24 -24 -22 -44 2 -21 -1 -26
-14 -24 -12 2 -15 -3 -11 -17 6 -22 -14 -64 -26 -57 -5 3 -16 -2 -24 -12 -28
-31 -87 -169 -94 -219 -3 -26 -12 -52 -20 -56 -7 -5 -11 -13 -7 -18 12 -20 -6
-58 -28 -61 -18 -2 -33 -25 -72 -113 -68 -154 -169 -417 -191 -500 -11 -38
-27 -78 -36 -88 -27 -30 -188 -457 -172 -457 4 0 15 7 25 17 24 22 24 4 -2
-73 -24 -72 -24 -75 -4 -67 13 5 15 2 9 -18 -4 -13 -17 -40 -30 -59 -13 -19
-40 -80 -60 -135 -42 -113 -69 -160 -46 -77 13 43 -6 42 -24 -1 -23 -55 -22
-62 5 -62 30 -1 29 -9 -3 -105 -20 -59 -22 -62 -25 -32 -5 47 -19 39 -37 -20
-25 -85 -86 -400 -83 -428 2 -14 21 47 42 135 64 262 57 154 -10 -160 -24
-109 -44 -166 -44 -122 0 9 -4 17 -10 17 -13 0 -30 -34 -30 -62 1 -21 2 -22
14 -5 7 9 17 17 21 17 12 0 -5 -190 -20 -235 -29 -81 -96 -583 -116 -860 -16
-232 -17 -904 -2 -930 12 -20 12 -19 13 3 0 29 14 28 28 -3 17 -36 15 -77 -4
-104 -31 -44 -31 -284 -1 -325 11 -15 22 -15 132 9 66 14 230 53 365 86 564
137 1251 265 1795 334 263 33 317 49 378 112 l27 29 -20 375 c-47 895 -52
1962 -12 2429 12 135 26 272 32 305 5 33 19 141 30 240 58 508 209 1284 341
1755 133 474 347 1115 457 1370 30 69 144 257 212 349 74 100 104 116 198 108
102 -10 311 -100 468 -202 104 -68 299 -231 420 -353 169 -170 423 -581 632
-1022 117 -248 181 -446 321 -990 88 -344 116 -498 211 -1157 50 -352 60 -445
60 -560 0 -123 16 -242 34 -260 12 -12 39 24 130 171 360 579 506 915 679
1556 183 675 206 822 214 1370 8 518 -7 737 -71 1019 -31 138 -32 151 -7 151
41 0 275 -173 487 -360 260 -229 665 -777 839 -1135 61 -125 138 -325 172
-443 13 -47 17 -150 23 -598 4 -298 11 -547 14 -553 11 -17 23 -13 47 12 78
82 364 648 498 985 45 114 142 430 175 575 47 202 103 580 91 624 -3 12 -10
23 -15 23 -6 0 0 14 12 31 22 30 23 37 22 247 -3 320 -34 566 -104 807 -142
490 -466 1078 -818 1487 -181 210 -626 623 -719 669 -54 26 -57 32 -33 54 26
23 120 32 453 40 310 8 552 -4 797 -40 217 -32 353 -37 358 -14 7 34 -398 458
-653 684 -209 185 -448 376 -571 457 -179 117 -394 249 -431 265 -20 8 -51 25
-67 38 -114 85 -570 259 -879 334 -243 60 -338 74 -732 111 -242 22 -325 38
-357 66 -18 17 -20 27 -15 84 8 94 56 267 143 517 41 120 103 296 136 391 33
95 57 179 54 187 -8 21 -46 18 -174 -16z"/>
</g>
</svg>
